<svg xmlns="http://www.w3.org/2000/svg" width="79" height="74" viewBox="0 0 79 74"><defs><clipPath id="l19ya"><path fill="#fff" d="M38 0c20.434 0 37 16.565 37 37 0 20.434-16.566 37-37 37C17.565 74 1 57.434 1 37 1 16.565 17.565 0 38 0z"/></clipPath><clipPath id="l19yb"><path fill="#fff" d="M42 0c12.703 0 23 10.297 23 23 0 12.702-10.297 23-23 23S19 35.702 19 23C19 10.297 29.297 0 42 0z"/></clipPath></defs><g><g><g><path fill="#fff" d="M38 0c20.434 0 37 16.565 37 37 0 20.434-16.566 37-37 37C17.565 74 1 57.434 1 37 1 16.565 17.565 0 38 0z"/><path fill="none" stroke="#ededed" stroke-miterlimit="20" stroke-width="8" d="M38 0c20.434 0 37 16.565 37 37 0 20.434-16.566 37-37 37C17.565 74 1 57.434 1 37 1 16.565 17.565 0 38 0z" clip-path="url(&quot;#l19ya&quot;)"/></g><g><path fill="#ededed" d="M0 37h24v4H0z"/></g><g><path fill="#ededed" d="M38.128 49.497L18.83 38.837l18.881-11.381z"/></g><g><path fill="#ededed" d="M49.916 26.707l3.37-2.157 24.798 38.743-3.37 2.157z"/></g><g><path fill="none" stroke="#ededed" stroke-miterlimit="20" stroke-width="8" d="M42 0c12.703 0 23 10.297 23 23 0 12.702-10.297 23-23 23S19 35.702 19 23C19 10.297 29.297 0 42 0z" clip-path="url(&quot;#l19yb&quot;)"/></g><g><path fill="#ededed" d="M18.298 66.589l52.59-26.744 1.814 3.566-52.59 26.743z"/></g></g></g></svg>