<svg xmlns="http://www.w3.org/2000/svg" width="28" height="28" viewBox="0 0 28 28"><g><g><path d="M28 9.784c0 .283-.007.856-.013 1.286-.011.78-.634 1.413-1.39 1.406-.03 0-.118.012-.188.022-.38.055-1.002.145-1.798-.19l-.61 4.79c-.268 2.112-1.298 4-2.9 5.32a7.554 7.554 0 0 1-5.639 1.71l-2.19-.238-3.182 3.865a.664.664 0 0 1-.596.24l-6.291-.822a.68.68 0 0 1-.566-.51.707.707 0 0 1 .245-.732l4.886-3.809 3.161-3.302c-.991-.099-1.978-.304-2.948-.615-2.999-.962-5.58-2.853-7.468-5.47l-.399-.552a.713.713 0 0 1-.021-.798.663.663 0 0 1 .72-.291c2.955.743 6.012.617 8.889-.361a16.068 16.068 0 0 1-1.587-9.47L8.21.575a.685.685 0 0 1 .532-.582.664.664 0 0 1 .71.324c1.704 2.937 4.183 5.247 7.168 6.68l1.099.528a4.295 4.295 0 0 1 2.031 2.078l1.642-1.716a4.026 4.026 0 0 1 2.927-1.266c1.107 0 2.147.45 2.929 1.266.485.508.752 1.181.752 1.896zm-17.023.468l.55-.215a4.052 4.052 0 0 1 4.004.595l1.852 1.445 1.33-1.39a2.961 2.961 0 0 0-1.561-1.902l-1.099-.529a17.805 17.805 0 0 1-6.721-5.634 14.616 14.616 0 0 0 1.645 7.63zm.674 13.463l-3.244-.35-3.395 2.645 4.29.56zm15.004-13.93c0-.349-.13-.675-.364-.921a2.713 2.713 0 0 0-1.972-.853c-.744 0-1.444.303-1.97.853l-4.417 4.614a.655.655 0 0 1-.89.073l-2.321-1.812a2.749 2.749 0 0 0-2.717-.404l-1.133.443a16.947 16.947 0 0 1-8.584 1.016c2.582 3.036 6.242 4.708 10.02 4.708.033 0 .181-.006.223-.002a12.938 12.938 0 0 0 4.134-.757.667.667 0 0 1 .855.429.7.7 0 0 1-.416.883 14.226 14.226 0 0 1-4.344.828l-3.084 3.223 5.927.64c1.68.182 3.334-.32 4.66-1.413 1.329-1.094 2.183-2.662 2.406-4.415l.74-5.816a.692.692 0 0 1 .406-.55.655.655 0 0 1 .664.084c.806.624 1.326.548 1.744.487.13-.019.257-.037.383-.036.02 0 .037-.016.037-.037.006-.426.013-.991.013-1.266z"/></g></g></svg>